<?xml version="1.0" encoding="UTF-8" ?>
<svg xmlns="http://www.w3.org/2000/svg" version="2.0" height = "400" width ="5000">
<polyline points="0 300, 172.89 182.12, 305.96 192.81, 377.16 195.95, 445.77 197.6, 507.99 196.68, 585.32 197.64, 678.99 199.21, 813.32 199.6, 956.3 207.3, 1092.7 220.62, 1170.27 235.23, 1230.04 240.8, 1248.16 244.09, 1327.01 245.78, 1455.01 241.49, 1625.93 233.38, 1774.12 227.58, 1943.72 219.83, 2040.29 214.79, 2073.47 213.17, 2146.06 209.72, 2235.73 206.58, 2335.26 208.24, 2500.04 210.8, 2580.25 209.86, 2656.56 201.9, 2805.61 192.58, 2886.71 189.64, 2982.36 191.63, 3113.18 193.0, 3371.98 201.3, 3582.63 198.27, 3650.42 195.4, 3809.07 185.19, 3846.08 181.88, 3942.0 179.85, 4097.34 177.84, 4287.47 178.94, 4287.47 300, 0 300"
style="fill:white;stroke:red;stroke-width:5" />
</svg>
