<?xml version="1.0" encoding="UTF-8" ?>
<svg xmlns="http://www.w3.org/2000/svg" version="2.0">
<polyline points="100 500, 172.89 317.88176109999995, 305.96 307.1863297, 377.16 304.0473888, 445.77 302.3969842, 507.99 303.32300940000005, 585.32 302.3615218, 678.99 300.78982529999996, 813.32 300.39907559999995, 956.3 292.69946059999995, 1092.7 279.3819102, 1170.27 264.77070819999994, 1230.04 259.19924530000003, 1248.16 255.91317219999996, 1327.01 254.21572289999995, 1455.01 258.5087003, 1625.93 266.620905, 1774.12 272.42057739999996, 1943.72 280.1652755, 2040.29 285.2138039, 2073.47 286.83353320000003, 2146.06 290.2802239, 2235.73 293.42164909999997, 2335.26 291.7573695, 2500.04 289.195388, 2580.25 290.1422003, 2656.56 298.1018564, 2805.61 307.4239757, 2886.71 310.35536420000005, 2982.36 308.3650175, 3113.18 307.0036563, 3371.98 298.70350670000005, 3582.63 301.72736870000006, 3650.42 304.59546620000003, 3809.07 314.8121052, 3846.08 318.11815390000004, 3942.0 320.14892440000006, 4097.34 322.15707380000003, 4287.47 321.05797959999995, 5000 500, 100 500"
style="fill:white;stroke:red;stroke-width:5" />
</svg>
