<?xml version="1.0" encoding="UTF-8" ?>
<svg xmlns="http://www.w3.org/2000/svg" version="2.0" height = "400" width = "5000">
<polyline points="0 200, 57.629999999999995 94.03941296666669, 101.98666666666665 97.60455676666668, 125.71999999999998 98.65087039999999, 148.58999999999997 99.20100526666666, 169.32999999999998 98.89233019999999, 195.10666666666665 99.21282606666666, 226.32999999999998 99.73672490000001, 271.1066666666667 99.86697480000002, 318.76666666666665 102.43351313333335, 364.23333333333335 106.8726966, 390.09000000000003 111.74309726666668, 410.0133333333334 113.60025156666666, 416.0533333333334 114.69560926666668, 442.3366666666667 115.26142570000002, 485.0033333333334 113.83043323333334, 541.9766666666667 111.126365, 591.3733333333333 109.19314086666668, 647.9066666666666 106.61157483333334, 680.0966666666666 104.92873203333333, 691.1566666666665 104.38882226666665, 715.3533333333332 103.23992536666667, 745.2433333333332 102.19278363333335, 778.4199999999998 102.7475435, 833.3466666666665 103.60153733333334, 860.0833333333331 103.28593323333332, 885.5199999999998 100.63271453333334, 935.2033333333331 97.52534143333332, 962.2366666666665 96.54821193333332, 994.1199999999998 97.21166083333333, 1037.7266666666665 97.6654479, 1123.993333333333 100.43216443333331, 1194.2099999999998 99.42421043333331, 1216.8066666666664 98.46817793333332, 1269.6899999999998 95.06263159999999, 1282.0266666666664 93.96061536666666, 1313.9999999999998 93.28369186666664, 1365.7799999999997 92.61430873333332, 1429.1566666666663 92.98067346666669, 1429.1566666666663 200, 0 200"
style="fill:white;stroke:red;stroke-width:5" />
</svg>
